<svg xmlns="http://www.w3.org/2000/svg" viewBox="100 0 295 70" preserveAspectRatio="xMidYMid meet" class="css-8aabad" id="dchhdedc"><defs id="SvgjsDefs1016"><linearGradient id="SvgjsLinearGradient1023"><stop id="SvgjsStop1024" stop-color="#fe8dc6" offset="0"></stop><stop id="SvgjsStop1025" stop-color="#fed1c7" offset="1"></stop></linearGradient></defs><g id="SvgjsG1018" featurekey="nameFeature-0" transform="matrix(1.3314093557998912,0,0,1.3314093557998912,118.85871634105891,0.7842533173700712)" fill="#fff"><path d="M8.1143 11.428999999999998 l0 6.2857 l-7.2571 0 l0 -6.2857 l7.2571 0 z M9.2571 11.428999999999998 l15.886 0 l0 6.2857 l-8.4571 0 l0 22.286 l-7.4286 0 l0 -28.571 z M39.714571428571425 40 l-3.1429 0 l-4.2857 -4.2857 l0 -24.286 l7.4286 0 l0 28.571 z M40.857571428571426 11.428999999999998 l15.714 0 l0 6.2857 l-15.714 0 l0 -6.2857 z M54.28557142857143 22.571 l0 6.2857 l-13.429 0 l0 -6.2857 l13.429 0 z M40.857571428571426 40 l0 -6.2857 l15.714 0 l0 6.2857 l-15.714 0 z M70.97144285714286 11.428999999999998 l0 6.2857 l-7.2571 0 l0 -6.2857 l7.2571 0 z M72.11424285714286 11.428999999999998 l15.886 0 l0 6.2857 l-8.4571 0 l0 22.286 l-7.4286 0 l0 -28.571 z M102.6287142857143 40 l-7.4857 0 l0.057143 -28.571 l7.4286 0 l0 28.571 z M112.9147142857143 11.428999999999998 l7.4286 0 l0 28.571 l-7.4286 0 l0 -11.143 l-9.1429 0 l0 -6.2857 l9.1429 0 l0 -11.143 z M136.91457142857143 40 l-3.1429 0 l-4.2857 -4.2857 l0 -24.286 l7.4286 0 l0 28.571 z M138.05757142857144 11.428999999999998 l15.714 0 l0 6.2857 l-15.714 0 l0 -6.2857 z M151.48557142857143 22.571 l0 6.2857 l-13.429 0 l0 -6.2857 l13.429 0 z M138.05757142857144 40 l0 -6.2857 l15.714 0 l0 6.2857 l-15.714 0 z M170.34314285714288 40 l-7.4286 0 l0 -28.571 l7.4286 0 l0 28.571 z M188.62814285714288 15.713999999999999 l0 10 l-4.2857 4.2857 l4.2857 6.5714 l0 3.4286 l-6.8571 0 l-5.9429 -9.7143 l-4.3429 0 l0 -6.2857 l9.7143 0 l0 -6.2857 l-9.7143 0 l0 -6.2857 l12.857 0 z"></path></g></svg>