<svg width="34" height="34" viewBox="0 0 34 34" fill="none" xmlns="http://www.w3.org/2000/svg">
<path d="M20.6312 15.7121L15.2048 21.5084C14.7446 22.0227 14.0894 22.3202 13.3992 22.3282C12.709 22.3362 12.0471 22.054 11.575 21.5505C10.532 20.4617 10.5495 18.7391 11.6144 17.6718L18.9026 9.87766C19.7067 8.98266 20.8508 8.46839 22.0539 8.4614C23.2568 8.45441 24.4069 8.95534 25.2212 9.84094C26.9582 11.7604 26.9458 14.6873 25.1926 16.592L17.4651 24.8485C16.3654 25.9525 14.86 26.5555 13.3023 26.516C11.7446 26.4767 10.2716 25.7985 9.22899 24.6405C6.84581 21.9523 6.90477 17.8906 9.36499 15.2728L16.6641 7.47998" stroke="white" stroke-width="1.5" stroke-linecap="round" stroke-linejoin="round"/>
</svg>
