<svg width="24" height="24" viewBox="0 0 24 24" fill="none" xmlns="http://www.w3.org/2000/svg">
<path d="M4.82921 11.4909C4.54804 11.2097 4.09215 11.2097 3.81098 11.4909C3.5298 11.7721 3.5298 12.2279 3.81098 12.5091L4.82921 11.4909ZM8.1601 15.84L7.65098 16.3491C7.93215 16.6303 8.38804 16.6303 8.66921 16.3491L8.1601 15.84ZM16.3492 8.66912C16.6304 8.38794 16.6304 7.93206 16.3492 7.65088C16.068 7.36971 15.6122 7.36971 15.331 7.65088L16.3492 8.66912ZM8.66921 11.4909C8.38804 11.2097 7.93215 11.2097 7.65098 11.4909C7.3698 11.7721 7.3698 12.2279 7.65098 12.5091L8.66921 11.4909ZM12.0001 15.84L11.491 16.3491C11.7722 16.6303 12.228 16.6303 12.5092 16.3491L12.0001 15.84ZM20.1892 8.66912C20.4704 8.38794 20.4704 7.93206 20.1892 7.65088C19.908 7.36971 19.4522 7.36971 19.171 7.65088L20.1892 8.66912ZM3.81098 12.5091L7.65098 16.3491L8.66921 15.3309L4.82921 11.4909L3.81098 12.5091ZM8.66921 16.3491L16.3492 8.66912L15.331 7.65088L7.65098 15.3309L8.66921 16.3491ZM7.65098 12.5091L11.491 16.3491L12.5092 15.3309L8.66921 11.4909L7.65098 12.5091ZM12.5092 16.3491L20.1892 8.66912L19.171 7.65088L11.491 15.3309L12.5092 16.3491Z" fill="#1B91E5"/>
</svg>
