<svg width="23" height="22" viewBox="0 0 23 22" fill="none" xmlns="http://www.w3.org/2000/svg">
<path d="M21.5 17.33C21.5 17.69 21.4199 18.06 21.2496 18.42C21.0794 18.78 20.859 19.12 20.5686 19.44C20.0779 19.98 19.5371 20.37 18.9261 20.62C18.3252 20.87 17.6743 21 16.9732 21C15.9517 21 14.86 20.76 13.7083 20.27C12.5566 19.78 11.4049 19.12 10.2631 18.29C9.11142 17.45 8.01978 16.52 6.97822 15.49C5.94667 14.45 5.01527 13.36 4.18403 12.22C3.36279 11.08 2.7018 9.94 2.22108 8.81C1.74036 7.67 1.5 6.58 1.5 5.54C1.5 4.86 1.62018 4.21 1.86054 3.61C2.1009 3 2.48147 2.44 3.01227 1.94C3.65323 1.31 4.35428 1 5.09539 1C5.37581 1 5.65623 1.06 5.90661 1.18C6.167 1.3 6.39735 1.48 6.57762 1.74L8.9011 5.01C9.08137 5.26 9.21157 5.49 9.3017 5.71C9.39184 5.92 9.44191 6.13 9.44191 6.32C9.44191 6.56 9.37181 6.8 9.2316 7.03C9.1014 7.26 8.91112 7.5 8.67076 7.74L7.90961 8.53C7.79945 8.64 7.74937 8.77 7.74937 8.93C7.74937 9.01 7.75939 9.08 7.77942 9.16C7.80946 9.24 7.83951 9.3 7.85954 9.36C8.03981 9.69 8.35028 10.12 8.79094 10.64C9.24161 11.16 9.72233 11.69 10.2431 12.22C10.7839 12.75 11.3047 13.24 11.8355 13.69C12.3563 14.13 12.7869 14.43 13.1274 14.61C13.1775 14.63 13.2376 14.66 13.3077 14.69C13.3878 14.72 13.468 14.73 13.5581 14.73C13.7283 14.73 13.8585 14.67 13.9687 14.56L14.7298 13.81C14.9802 13.56 15.2206 13.37 15.4509 13.25C15.6813 13.11 15.9116 13.04 16.162 13.04C16.3523 13.04 16.5526 13.08 16.7729 13.17C16.9932 13.26 17.2236 13.39 17.474 13.56L20.7889 15.91C21.0493 16.09 21.2296 16.3 21.3398 16.55C21.4399 16.8 21.5 17.05 21.5 17.33Z" stroke="#BBBBBB" stroke-width="1.5" stroke-miterlimit="10"/>
</svg>
