<svg width="21" height="22" viewBox="0 0 21 22" fill="none" xmlns="http://www.w3.org/2000/svg">
<path d="M19.895 10.4781C19.8986 11.8558 19.5767 13.215 18.9555 14.4448C18.2189 15.9185 17.0867 17.1581 15.6854 18.0246C14.2842 18.8911 12.6694 19.3505 11.0219 19.3511C9.64414 19.3547 8.28498 19.0328 7.05516 18.4116L1.105 20.395L3.08839 14.4448C2.4672 13.215 2.14529 11.8558 2.14889 10.4781C2.14952 8.83054 2.60884 7.21575 3.47537 5.81454C4.34191 4.41333 5.58145 3.28104 7.05516 2.54451C8.28498 1.92332 9.64414 1.60142 11.0219 1.60501H11.5439C13.7197 1.72505 15.7748 2.64343 17.3157 4.18431C18.8566 5.72519 19.7749 7.78028 19.895 9.95611V10.4781Z" stroke="#BBBBBB" stroke-width="2" stroke-linecap="round" stroke-linejoin="round"/>
</svg>
