<svg width="21" height="22" viewBox="0 0 21 22" fill="none" xmlns="http://www.w3.org/2000/svg">
<path d="M19.895 10.4781C19.8986 11.8559 19.5767 13.215 18.9555 14.4448C18.2189 15.9185 17.0867 17.1581 15.6854 18.0246C14.2842 18.8912 12.6694 19.3505 11.0219 19.3511C9.64414 19.3547 8.28498 19.0328 7.05516 18.4116L1.105 20.395L3.08839 14.4448C2.4672 13.215 2.14529 11.8559 2.14889 10.4781C2.14952 8.83056 2.60884 7.21576 3.47537 5.81455C4.34191 4.41334 5.58145 3.28106 7.05516 2.54452C8.28498 1.92334 9.64414 1.60143 11.0219 1.60503H11.5439C13.7197 1.72506 15.7748 2.64344 17.3157 4.18432C18.8566 5.7252 19.7749 7.7803 19.895 9.95612V10.4781Z" fill="#1B91E5" stroke="#1B91E5" stroke-width="2" stroke-linecap="round" stroke-linejoin="round"/>
</svg>
