<svg width="23" height="22" viewBox="0 0 23 22" fill="none" xmlns="http://www.w3.org/2000/svg">
<path d="M12.7 20.37C12.04 21.25 10.96 21.25 10.3 20.37L8.79999 18.37C8.62999 18.15 8.27 17.97 8 17.97H7.5C3.5 17.97 1.5 16.97 1.5 11.97V6.97C1.5 2.97 3.5 0.970001 7.5 0.970001H15.5C19.5 0.970001 21.5 2.97 21.5 6.97V11.97M21.5 21L20.5 20M15.4965 10H15.5054M11.4955 10H11.5045M7.49451 10H7.50349M20.9 17.2C20.9 18.9673 19.4673 20.4 17.7 20.4C15.9327 20.4 14.5 18.9673 14.5 17.2C14.5 15.4327 15.9327 14 17.7 14C19.4673 14 20.9 15.4327 20.9 17.2Z" stroke="white" stroke-width="1.5" stroke-linecap="round" stroke-linejoin="round"/>
</svg>
