<svg width="21" height="20" viewBox="0 0 21 20" fill="none" xmlns="http://www.w3.org/2000/svg">
<path fill-rule="evenodd" clip-rule="evenodd" d="M6.70929 0.824493C8.39107 0.0956998 10.2408 -0.156854 12.0564 0.094422C13.872 0.345698 15.5836 1.09114 17.0043 2.2493C18.4246 3.40729 19.4996 4.93331 20.1114 6.66071C20.4963 7.74316 20.3251 8.98291 19.6614 9.9206C18.9978 10.858 17.886 11.4314 16.7374 11.4286H14.065C13.5549 11.4272 13.0611 11.6078 12.6722 11.9379C12.2834 12.2681 12.025 12.7261 11.9437 13.2297C11.8623 13.7333 11.9633 14.2494 12.2284 14.6851C12.4935 15.121 12.9054 15.4479 13.39 15.6071C13.3987 15.61 13.4073 15.613 13.4158 15.6161C14.2016 15.9081 14.7513 16.6189 14.8041 17.4529C14.9194 18.411 14.2943 19.3681 13.361 19.6303C12.489 19.878 11.5866 20.0024 10.6801 20C8.84753 19.999 7.05042 19.4944 5.4851 18.5414C2.32296 16.6161 0.454058 13.004 0.709256 9.31067C0.964453 5.61736 3.3124 2.29653 6.70929 0.824493ZM6.92413 10C8.1076 10 9.06699 9.04062 9.06699 7.85714C9.06699 6.67367 8.1076 5.71429 6.92413 5.71429C5.74066 5.71429 4.78127 6.67367 4.78127 7.85714C4.78127 9.04062 5.74066 10 6.92413 10ZM15.4954 5.71499C15.4954 6.89846 14.536 7.85784 13.3525 7.85784C12.1691 7.85784 11.2097 6.89846 11.2097 5.71499C11.2097 4.53151 12.1691 3.57213 13.3525 3.57213C14.536 3.57213 15.4954 4.53151 15.4954 5.71499ZM6.92396 14.9993C7.71293 14.9993 8.35253 14.3597 8.35253 13.5707C8.35253 12.7818 7.71293 12.1422 6.92396 12.1422C6.13497 12.1422 5.49539 12.7818 5.49539 13.5707C5.49539 14.3597 6.13497 14.9993 6.92396 14.9993Z" fill="#BBBBBB"/>
</svg>
