<svg width="20" height="20" viewBox="0 0 20 20" fill="none" xmlns="http://www.w3.org/2000/svg">
<path d="M9.43 4C6.43038 4 4 6.43203 4 9.43C4 12.428 6.43203 14.86 9.43 14.86C12.4296 14.86 14.86 12.428 14.86 9.43C14.86 6.43203 12.428 4 9.43 4ZM9.43 13.6555C7.10026 13.6555 5.20612 11.7614 5.20612 9.43165C5.20612 7.10191 7.10026 5.20777 9.43 5.20777C11.7597 5.20777 13.6539 7.10191 13.6539 9.43165C13.6539 11.7614 11.7581 13.6555 9.43 13.6555Z" fill="white"/>
<path d="M10.0355 7.0144H8.82776V9.67743L10.816 11.6656L11.669 10.8126L10.0355 9.17914V7.0144Z" fill="white"/>
</svg>
