<svg width="28" height="28" viewBox="0 0 28 28" fill="none" xmlns="http://www.w3.org/2000/svg">
<path d="M10.4724 2.99251L22.5991 9.05584C28.0391 11.7758 28.0391 16.2242 22.5991 18.9442L10.4724 25.0075C2.31239 29.0875 -1.01678 25.7442 3.06322 17.5983L4.29572 15.1475C4.60739 14.5242 4.60739 13.49 4.29572 12.8667L3.06322 10.4017C-1.01678 2.25584 2.32655 -1.08749 10.4724 2.99251Z" fill="#1B91E5"/>
<path d="M4.70655 14H12.3566Z" fill="#1B91E5"/>
<path d="M4.70655 14H12.3566M10.4724 2.99251L22.5991 9.05584C28.0391 11.7758 28.0391 16.2242 22.5991 18.9442L10.4724 25.0075C2.31239 29.0875 -1.01678 25.7442 3.06322 17.5983L4.29572 15.1475C4.60739 14.5242 4.60739 13.49 4.29572 12.8667L3.06322 10.4017C-1.01678 2.25584 2.32655 -1.08749 10.4724 2.99251Z" stroke="#002F7A" stroke-opacity="0.27" stroke-width="1.5" stroke-linecap="round" stroke-linejoin="round"/>
</svg>
