<svg width="23" height="22" viewBox="0 0 23 22" fill="none" xmlns="http://www.w3.org/2000/svg">
<path d="M11.5 13.7501C13.0188 13.7501 14.25 12.5189 14.25 11.0001C14.25 9.4813 13.0188 8.25008 11.5 8.25008C9.98122 8.25008 8.75 9.4813 8.75 11.0001C8.75 12.5189 9.98122 13.7501 11.5 13.7501Z" stroke="#BBBBBB" stroke-width="1.5" stroke-linecap="round" stroke-linejoin="round"/>
<path d="M18.2833 13.7501C18.1613 14.0266 18.1249 14.3333 18.1788 14.6306C18.2327 14.928 18.3745 15.2024 18.5858 15.4184L18.6408 15.4734C18.8113 15.6437 18.9465 15.8459 19.0388 16.0684C19.131 16.291 19.1785 16.5296 19.1785 16.7705C19.1785 17.0114 19.131 17.25 19.0388 17.4726C18.9465 17.6951 18.8113 17.8973 18.6408 18.0676C18.4706 18.238 18.2684 18.3733 18.0458 18.4655C17.8232 18.5578 17.5847 18.6053 17.3437 18.6053C17.1028 18.6053 16.8643 18.5578 16.6417 18.4655C16.4191 18.3733 16.2169 18.238 16.0467 18.0676L15.9917 18.0126C15.7756 17.8013 15.5012 17.6595 15.2039 17.6056C14.9065 17.5517 14.5998 17.5881 14.3233 17.7101C14.0522 17.8263 13.821 18.0192 13.6581 18.2652C13.4952 18.5111 13.4078 18.7993 13.4067 19.0942V19.2501C13.4067 19.7363 13.2135 20.2026 12.8697 20.5464C12.5259 20.8903 12.0596 21.0834 11.5733 21.0834C11.0871 21.0834 10.6208 20.8903 10.277 20.5464C9.93315 20.2026 9.74 19.7363 9.74 19.2501V19.1676C9.7329 18.8642 9.63469 18.5699 9.45813 18.3231C9.28158 18.0762 9.03484 17.8882 8.75 17.7834C8.47352 17.6614 8.16682 17.625 7.86946 17.6789C7.5721 17.7328 7.2977 17.8746 7.08166 18.0859L7.02666 18.1409C6.8564 18.3114 6.6542 18.4466 6.43164 18.5389C6.20908 18.6311 5.97051 18.6786 5.72958 18.6786C5.48865 18.6786 5.25009 18.6311 5.02752 18.5389C4.80496 18.4466 4.60277 18.3114 4.4325 18.1409C4.26204 17.9706 4.12682 17.7685 4.03455 17.5459C3.94229 17.3233 3.89481 17.0848 3.89481 16.8438C3.89481 16.6029 3.94229 16.3643 4.03455 16.1418C4.12682 15.9192 4.26204 15.717 4.4325 15.5467L4.4875 15.4917C4.69882 15.2757 4.84058 15.0013 4.8945 14.704C4.94842 14.4066 4.91202 14.0999 4.79 13.8234C4.6738 13.5523 4.48086 13.3211 4.23492 13.1582C3.98899 12.9953 3.7008 12.9079 3.40583 12.9067H3.25C2.76377 12.9067 2.29745 12.7136 1.95364 12.3698C1.60982 12.026 1.41666 11.5596 1.41666 11.0734C1.41666 10.5872 1.60982 10.1209 1.95364 9.77705C2.29745 9.43324 2.76377 9.24008 3.25 9.24008H3.3325C3.63591 9.23298 3.93017 9.13477 4.17702 8.95822C4.42388 8.78166 4.6119 8.53492 4.71666 8.25008C4.83869 7.9736 4.87509 7.6669 4.82117 7.36954C4.76725 7.07218 4.62549 6.79779 4.41416 6.58175L4.35916 6.52675C4.18871 6.35648 4.05348 6.15429 3.96122 5.93172C3.86896 5.70916 3.82147 5.47059 3.82147 5.22967C3.82147 4.98874 3.86896 4.75017 3.96122 4.52761C4.05348 4.30504 4.18871 4.10285 4.35916 3.93258C4.52943 3.76212 4.73163 3.6269 4.95419 3.53464C5.17675 3.44238 5.41532 3.39489 5.65625 3.39489C5.89718 3.39489 6.13574 3.44238 6.35831 3.53464C6.58087 3.6269 6.78306 3.76212 6.95333 3.93258L7.00833 3.98758C7.22437 4.19891 7.49876 4.34067 7.79612 4.39459C8.09349 4.4485 8.40018 4.4121 8.67666 4.29008H8.75C9.02112 4.17388 9.25235 3.98094 9.41522 3.73501C9.57809 3.48908 9.66549 3.20089 9.66666 2.90591V2.75008C9.66666 2.26385 9.85982 1.79754 10.2036 1.45372C10.5475 1.1099 11.0138 0.916748 11.5 0.916748C11.9862 0.916748 12.4525 1.1099 12.7964 1.45372C13.1402 1.79754 13.3333 2.26385 13.3333 2.75008V2.83258C13.3345 3.12755 13.4219 3.41574 13.5848 3.66168C13.7476 3.90761 13.9789 4.10055 14.25 4.21675C14.5265 4.33877 14.8332 4.37517 15.1305 4.32125C15.4279 4.26734 15.7023 4.12557 15.9183 3.91425L15.9733 3.85925C16.1436 3.68879 16.3458 3.55357 16.5684 3.46131C16.7909 3.36904 17.0295 3.32156 17.2704 3.32156C17.5113 3.32156 17.7499 3.36904 17.9725 3.46131C18.195 3.55357 18.3972 3.68879 18.5675 3.85925C18.738 4.02952 18.8732 4.23171 18.9654 4.45427C19.0577 4.67684 19.1052 4.9154 19.1052 5.15633C19.1052 5.39726 19.0577 5.63583 18.9654 5.85839C18.8732 6.08095 18.738 6.28315 18.5675 6.45342L18.5125 6.50842C18.3012 6.72445 18.1594 6.99885 18.1055 7.29621C18.0516 7.59357 18.088 7.90027 18.21 8.17675V8.25008C18.3262 8.5212 18.5191 8.75243 18.7651 8.9153C19.011 9.07817 19.2992 9.16557 19.5942 9.16675H19.75C20.2362 9.16675 20.7025 9.3599 21.0464 9.70372C21.3902 10.0475 21.5833 10.5139 21.5833 11.0001C21.5833 11.4863 21.3902 11.9526 21.0464 12.2964C20.7025 12.6403 20.2362 12.8334 19.75 12.8334H19.6675C19.3725 12.8346 19.0843 12.922 18.8384 13.0849C18.5925 13.2477 18.3995 13.479 18.2833 13.7501Z" stroke="#BBBBBB" stroke-width="1.5" stroke-linecap="round" stroke-linejoin="round"/>
</svg>
