<svg width="23" height="20" viewBox="0 0 23 20" fill="none" xmlns="http://www.w3.org/2000/svg">
<path d="M12.03 18.42H5.71C2.55 18.42 1.5 16.32 1.5 14.21V5.79C1.5 2.63 2.55 1.58 5.71 1.58H12.03C15.19 1.58 16.24 2.63 16.24 5.79V14.21C16.24 17.37 15.18 18.42 12.03 18.42Z" stroke="white" stroke-width="1.5" stroke-linecap="round" stroke-linejoin="round"/>
<path d="M19.02 15.1L16.24 13.15V6.84L19.02 4.89C20.38 3.94 21.5 4.52 21.5 6.19V13.81C21.5 15.48 20.38 16.06 19.02 15.1Z" stroke="white" stroke-width="1.5" stroke-linecap="round" stroke-linejoin="round"/>
<path d="M11 9C11.8284 9 12.5 8.32843 12.5 7.5C12.5 6.67157 11.8284 6 11 6C10.1716 6 9.5 6.67157 9.5 7.5C9.5 8.32843 10.1716 9 11 9Z" stroke="white" stroke-width="1.5" stroke-linecap="round" stroke-linejoin="round"/>
</svg>
