<svg version="1.1" xmlns="http://www.w3.org/2000/svg" width="40" height="45" viewBox="0 0 693 620"><path d="M0 0 C62.0749757 -0.05140406 124.14995385 -0.09910448 186.22494507 -0.12702942 C187.1432656 -0.12744359 188.06158614 -0.12785776 189.00773457 -0.12828448 C208.9639722 -0.13726262 228.92021006 -0.14557325 248.87644825 -0.15319599 C258.66258664 -0.15693809 268.44872498 -0.16082774 278.23486328 -0.16479492 C279.20871616 -0.1651872 280.18256904 -0.16557948 281.18593262 -0.16598364 C312.7671823 -0.17877405 344.3484159 -0.20131273 375.92965584 -0.22889166 C408.37591866 -0.25717462 440.82217258 -0.27565289 473.26844751 -0.28174497 C477.84832106 -0.28260947 482.42819458 -0.28358638 487.00806808 -0.28463173 C487.90947766 -0.284834 488.81088724 -0.28503627 489.73961225 -0.28524467 C504.26615303 -0.28879367 518.79266633 -0.30271822 533.31919589 -0.3204961 C547.91336813 -0.33813631 562.50751307 -0.34490934 577.10169561 -0.34050413 C585.77876531 -0.33821757 594.45573527 -0.34434858 603.13278701 -0.36239263 C608.92433036 -0.37361638 614.71580816 -0.37400931 620.50735599 -0.36549544 C623.81036912 -0.36095287 627.11315427 -0.36285931 630.41615506 -0.37464955 C633.97066738 -0.38660496 637.52468346 -0.38025079 641.07918739 -0.36914349 C642.10945854 -0.37702453 643.13972968 -0.38490557 644.20122117 -0.39302543 C649.57848511 -0.3547869 653.32332486 0.01951831 658 3 C655.75671836 4.82266634 653.51335675 6.63003287 651.16796875 8.3203125 C646.53610223 11.66402679 642.57823383 15.29725724 638.6640625 19.4609375 C637 21 637 21 635 21 C635 21.66 635 22.32 635 23 C633.56640625 24.4453125 633.56640625 24.4453125 631.5625 26.125 C630.83160156 26.74632813 630.10070312 27.36765625 629.34765625 28.0078125 C628.57292969 28.66523437 627.79820312 29.32265625 627 30 C625.49626746 31.32912235 623.99626132 32.66247249 622.5 34 C619.62333432 36.56473808 616.72761996 39.10411531 613.8125 41.625 C611.30324642 43.80369323 608.93507344 46.04911898 606.625 48.4375 C604 51 604 51 602 51 C602 51.66 602 52.32 602 53 C601.34 53 600.68 53 600 53 C600 53.66 600 54.32 600 55 C598.42578125 56.55078125 598.42578125 56.55078125 596.3125 58.3125 C593.80197706 60.43644684 591.39176579 62.55501344 589.125 64.9375 C587 67 587 67 585 67 C585 67.66 585 68.32 585 69 C583.6015625 70.41015625 583.6015625 70.41015625 581.625 72.0625 C573.31813907 79.13278794 565.31623397 86.53651696 557.30859375 93.94140625 C543.05550816 107.12163388 543.05550816 107.12163388 535.81640625 113.36328125 C533.23218193 115.69186187 530.83384775 118.18744018 528.4453125 120.71484375 C527 122 527 122 525 122 C525 122.66 525 123.32 525 124 C523.42578125 125.55078125 523.42578125 125.55078125 521.3125 127.3125 C518.80197706 129.43644684 516.39176579 131.55501344 514.125 133.9375 C512 136 512 136 510 136 C510 136.66 510 137.32 510 138 C509.34 138 508.68 138 508 138 C508 138.66 508 139.32 508 140 C507.34 140 506.68 140 506 140 C506 140.66 506 141.32 506 142 C504.55859375 143.234375 504.55859375 143.234375 502.4375 144.75 C497.81533255 148.23676974 493.59284065 152.04417276 489.375 156 C488.75423584 156.58104492 488.13347168 157.16208984 487.49389648 157.76074219 C483.71690558 161.32037749 480.05141431 164.96053293 476.46728516 168.71484375 C475 170 475 170 473 170 C473 170.66 473 171.32 473 172 C471.33984375 173.453125 471.33984375 173.453125 468.9375 175.25 C464.0971717 179.017008 459.59578269 183.05233792 455.125 187.25 C454.48296631 187.85231445 453.84093262 188.45462891 453.17944336 189.07519531 C450.6264954 191.48230842 448.10771113 193.88757424 445.6796875 196.421875 C444 198 444 198 442 198 C442 198.66 442 199.32 442 200 C440.3386634 201.45145244 438.61899391 202.83648605 436.875 204.1875 C428.91924606 210.41433991 428.91924606 210.41433991 424 219 C423.90443339 221.22666666 423.87098419 223.45614487 423.86869812 225.68486023 C423.86658241 226.36781577 423.86446669 227.05077132 423.86228687 227.75442249 C423.85628458 230.04813036 423.85728719 232.34178326 423.8581543 234.63549805 C423.85512289 236.27811273 423.85160149 237.92072657 423.84762573 239.56333923 C423.83973393 243.10408815 423.83459071 246.64482697 423.83133507 250.18558311 C423.82542559 255.78747516 423.80888506 261.38930365 423.78999329 266.99116516 C423.78365574 268.90912529 423.77733012 270.82708546 423.77101612 272.74504566 C423.76785031 273.70564164 423.7646845 274.66623761 423.76142275 275.65594256 C423.71935354 288.69859556 423.68637905 301.74121923 423.67407227 314.78393555 C423.66568725 323.57995778 423.64317906 332.37582293 423.6047166 341.17176658 C423.5849686 345.82555455 423.57254714 350.47910775 423.57755089 355.13294029 C423.58220349 359.51366364 423.56835863 363.89394242 423.54053879 368.27457619 C423.53363695 369.87892319 423.53348961 371.48331627 423.54073906 373.08766174 C423.60224983 388.23488767 423.60224983 388.23488767 419 395 C416.171875 397.69921875 416.171875 397.69921875 413 400 C412.17532227 400.60642334 412.17532227 400.60642334 411.33398438 401.22509766 C409.65562513 402.44611853 407.95763582 403.63285732 406.25 404.8125 C405.67378906 405.21919922 405.09757812 405.62589844 404.50390625 406.04492188 C400.24263393 409 400.24263393 409 398 409 C398 409.66 398 410.32 398 411 C396.27734375 412.515625 396.27734375 412.515625 393.9375 414.25 C390.90310854 416.54616668 387.90524833 418.85421295 385 421.3125 C384.1646875 422.01826172 384.1646875 422.01826172 383.3125 422.73828125 C381.86703029 423.98687513 381.86703029 423.98687513 381 426 C380.34 426 379.68 426 379 426 C379 426.66 379 427.32 379 428 C378.34 428 377.68 428 377 428 C377 428.66 377 429.32 377 430 C376.34 430 375.68 430 375 430 C374.78988281 430.53109375 374.57976562 431.0621875 374.36328125 431.609375 C372.46193234 434.94354558 369.83530928 437.50776839 367.1875 440.25 C362.76973758 444.90169022 359.26169862 449.45511234 356 455 C355.34 455 354.68 455 354 455 C353.773125 455.845625 353.54625 456.69125 353.3125 457.5625 C352.04546711 460.88091947 350.39543181 463.23452936 348.31713867 466.07983398 C346.21566416 469.14342935 344.61642576 472.4120151 343 475.75 C342.68289063 476.389375 342.36578125 477.02875 342.0390625 477.6875 C341.00766445 479.78330084 340.00112571 481.88957463 339 484 C338.60304932 484.82604736 338.20609863 485.65209473 337.79711914 486.50317383 C334.47888118 493.57168189 331.8683604 500.77155699 329.4375 508.1875 C329.04473877 509.38076904 328.65197754 510.57403809 328.24731445 511.8034668 C321.98498996 531.05857812 318.20050395 550.69920542 315.39453125 570.734375 C315 573 315 573 314 575 C312.68 575 311.36 575 310 575 C309.17989821 569.71489957 308.99507034 564.96674654 309.46682262 559.63461399 C310.06186029 551.90432796 310.12550846 544.21995927 310.09333801 536.47117615 C310.09090356 534.9545573 310.0889311 533.43793764 310.08737487 531.92131764 C310.08303438 528.65063256 310.0754808 525.37997672 310.06537247 522.10930443 C310.04892382 516.78534903 310.03958784 511.46139375 310.03102112 506.13742065 C310.01794321 498.40834743 310.00161053 490.67928681 309.98346901 482.95022392 C309.9551668 470.72594443 309.93857106 458.5016615 309.92399597 446.27735901 C309.91887261 442.08812233 309.91369851 437.89888571 309.90852642 433.70964909 C309.90724039 432.66296633 309.90595436 431.61628358 309.90462935 430.53788317 C309.88991956 418.64480065 309.8734314 406.75172098 309.85571289 394.85864258 C309.85329078 393.22929973 309.85329078 393.22929973 309.85081973 391.56704087 C309.82426586 373.95217325 309.78649909 356.33734365 309.74552432 338.72250449 C309.70375501 320.61129756 309.67735385 302.50011072 309.66431636 284.38886029 C309.65573457 273.23114604 309.63475178 262.073595 309.59768762 250.91593838 C309.57336641 243.26995512 309.563721 235.62404115 309.56550769 227.97801977 C309.56608397 223.57125042 309.56020429 219.16474379 309.53663635 214.75803185 C309.51515866 210.71707473 309.51247965 206.67653953 309.5241917 202.63554633 C309.5251812 201.18081852 309.51950505 199.726066 309.50614605 198.27139919 C309.36101576 181.54049437 313.62908215 169.47419309 325.25 157.4375 C329.29405923 153.529834 333.59804627 150.02023289 337.98828125 146.51171875 C341.41446713 143.65434194 344.639481 140.63140959 347.875 137.5625 C352.82094724 132.88067976 357.92422757 128.65375313 363.38842773 124.59570312 C367.79198288 121.27875696 371.5146984 117.54109774 375.328125 113.578125 C378.99309312 110.04175226 382.97671236 107.00662976 387.01464844 103.91235352 C391.35433416 100.56762891 395.27265748 97.02246935 399 93 C399.99650963 91.99652177 400.99556548 90.99554572 402 90 C379.55259625 82.51753208 346.51141996 87.89843943 323.10355759 87.95540047 C315.44214053 87.973987 307.78072772 87.98336723 300.11929321 87.99131775 C289.36614506 88.00314667 278.61300397 88.01709065 267.85986328 88.03442383 C267.18227068 88.03551395 266.50467808 88.03660407 265.80655237 88.03772723 C258.23707997 88.05001567 250.66761111 88.06357229 243.09814453 88.07904053 C242.07450266 88.0811322 242.07450266 88.0811322 241.03018115 88.08326614 C239.65309553 88.08608496 238.27600992 88.08890462 236.89892431 88.0917251 C236.21829979 88.09311842 235.53767528 88.09451173 234.83642578 88.09594727 C234.15665858 88.0973408 233.47689139 88.09873433 232.77652518 88.10017008 C221.38947741 88.12330737 210.00243995 88.13843733 198.61537135 88.14750665 C191.01900812 88.15399341 183.42273551 88.16942858 175.82640338 88.19182408 C171.08802968 88.20365248 166.34967716 88.20692701 161.61128998 88.20792198 C159.4362564 88.21004699 157.26122268 88.21555943 155.08620834 88.2249527 C118.30032274 88.37752603 118.30032274 88.37752603 102 82 C101.0411792 81.62633301 101.0411792 81.62633301 100.06298828 81.24511719 C91.26235346 77.75992389 83.50580146 73.83784558 76 68 C74.56527344 66.95972656 74.56527344 66.95972656 73.1015625 65.8984375 C65.5807003 60.3459985 58.791076 54.22404858 52.08764648 47.70922852 C48.20563436 43.95978421 44.25843572 40.57925118 39.89526367 37.40283203 C36.99935508 35.25934488 34.28842835 32.91572792 31.5625 30.5625 C27.87630051 27.40745777 24.17579581 24.31357075 20.3125 21.375 C16.09880839 18.16235115 12.22885403 14.63219691 8.359375 11.015625 C6.0173995 9.01486447 3.67243192 7.51961815 1 6 C0.01 5.34 -0.98 4.68 -2 4 C-2 3.34 -2 2.68 -2 2 C-1.34 2 -0.68 2 0 2 C0 1.34 0 0.68 0 0 Z " fill="#FDFDFD" transform="translate(18,38)" /><path d="M0 0 C0.66 0 1.32 0 2 0 C2.33 5.28 2.66 10.56 3 16 C3.66 12.7 4.32 9.4 5 6 C5.33 6 5.66 6 6 6 C6.05441656 7.89551022 6.09298035 9.7914792 6.125 11.6875 C6.14820313 12.74324219 6.17140625 13.79898438 6.1953125 14.88671875 C5.99858729 18.02251859 5.33057654 20.17645373 4 23 C2.68 23 1.36 23 0 23 C-1.21074074 15.19744856 -0.72526532 7.84402334 0 0 Z " fill="#CFCFCF" transform="translate(328,590)" /><path d="M0 0 C0 3.52599722 -0.53480434 3.97292161 -2.8125 6.5 C-3.59560547 7.38171875 -3.59560547 7.38171875 -4.39453125 8.28125 C-5.8972639 9.89001488 -7.43173454 11.45528207 -9 13 C-9.33 11.02 -9.66 9.04 -10 7 C-6.7 4.69 -3.4 2.38 0 0 Z " fill="#F5F5F5" transform="translate(383,478)" /><path d="M0 0 C0 3 0 3 -1 6 C-1.66 6 -2.32 6 -3 6 C-3.33 6.99 -3.66 7.98 -4 9 C-4.66 8.67 -5.32 8.34 -6 8 C-5.65120368 4.74456771 -4.97866739 3.98126893 -2.4375 1.75 C-1.633125 1.1725 -0.82875 0.595 0 0 Z " fill="#F5F6F6" transform="translate(358,183)" /><path d="M0 0 C0.33 0 0.66 0 1 0 C1.05423638 1.91635217 1.09289963 3.83314925 1.125 5.75 C1.14820313 6.81734375 1.17140625 7.8846875 1.1953125 8.984375 C1.00487687 11.92470106 0.52670104 13.52361878 -1 16 C-1.33 16 -1.66 16 -2 16 C-1.50130596 10.63108121 -0.97772468 5.30764827 0 0 Z " fill="#AEAEB0" transform="translate(333,596)" /><path d="M0 0 C4.95 0 9.9 0 15 0 C14.67 0.99 14.34 1.98 14 3 C13.34 3 12.68 3 12 3 C12 2.34 12 1.68 12 1 C10.95199219 1.14308594 10.95199219 1.14308594 9.8828125 1.2890625 C8.97273438 1.39992188 8.06265625 1.51078125 7.125 1.625 C5.76761719 1.79902344 5.76761719 1.79902344 4.3828125 1.9765625 C3.59648437 1.98429687 2.81015625 1.99203125 2 2 C1.34 1.34 0.68 0.68 0 0 Z " fill="#B0B0B0" transform="translate(410,125)" /><path d="M0 0 C0.66 0.66 1.32 1.32 2 2 C-0.64 4.64 -3.28 7.28 -6 10 C-6.66 9.67 -7.32 9.34 -8 9 C-5.57731527 5.696339 -2.89075572 2.89075572 0 0 Z " fill="#ECEDEC" transform="translate(499,198)" /><path d="M0 0 C0.33 0.66 0.66 1.32 1 2 C1.66 2.33 2.32 2.66 3 3 C2.0479279 4.00596297 1.08812654 5.00461563 0.125 6 C-0.40867187 6.556875 -0.94234375 7.11375 -1.4921875 7.6875 C-3 9 -3 9 -5 9 C-5 8.34 -5 7.68 -5 7 C-4.34 7 -3.68 7 -3 7 C-3 6.34 -3 5.68 -3 5 C-2.34 5 -1.68 5 -1 5 C-1.33 4.01 -1.66 3.02 -2 2 C-1.34 1.34 -0.68 0.68 0 0 Z " fill="#EEEEEE" transform="translate(644,63)" /><path d="M0 0 C0.66 1.32 1.32 2.64 2 4 C-0.97 6.475 -0.97 6.475 -4 9 C-3.46930939 5.17902761 -2.50298434 2.93828597 0 0 Z " fill="#E8E8E8" transform="translate(336,204)" /><path d="M0 0 C0.66 0.33 1.32 0.66 2 1 C1.67 2.32 1.34 3.64 1 5 C1.66 5.33 2.32 5.66 3 6 C2.01 6.33 1.02 6.66 0 7 C-1.5 5.625 -1.5 5.625 -3 4 C-3 3.34 -3 2.68 -3 2 C-2.01 1.34 -1.02 0.68 0 0 Z " fill="#EEEEEE" transform="translate(376,167)" /><path d="M0 0 C0.66 0.99 1.32 1.98 2 3 C1.01 3.495 1.01 3.495 0 4 C-0.66 3.67 -1.32 3.34 -2 3 C-2.33 3.66 -2.66 4.32 -3 5 C-4.32 4.67 -5.64 4.34 -7 4 C-4.82575883 1.49962266 -3.26954202 0.56371414 0 0 Z " fill="#F2F2F2" transform="translate(411,139)" /><path d="M0 0 C0.66 0.33 1.32 0.66 2 1 C0.71034824 2.37562854 -0.62689293 3.70766393 -2 5 C-2.66 5 -3.32 5 -4 5 C-4.33 5.66 -4.66 6.32 -5 7 C-5 6.34 -5 5.68 -5 5 C-5.66 4.67 -6.32 4.34 -7 4 C-6.030625 3.525625 -5.06125 3.05125 -4.0625 2.5625 C-1.19522563 1.29806053 -1.19522563 1.29806053 0 0 Z " fill="#EFF1F1" transform="translate(607,100)" /><path d="M0 0 C-0.33 1.32 -0.66 2.64 -1 4 C-2.32 4.33 -3.64 4.66 -5 5 C-5.33 4.34 -5.66 3.68 -6 3 C-5.34 3 -4.68 3 -4 3 C-4 2.34 -4 1.68 -4 1 C-2 0 -2 0 0 0 Z " fill="#F5F5F5" transform="translate(664,47)" /></svg>