<svg xmlns="http://www.w3.org/2000/svg" width="23" height="12" viewBox="0 0 23 12" fill="none">
  <path d="M21.5 6.3848C21.5 5.8213 21.2668 5.2775 20.8263 4.9261C15.5181 0.691294 7.48187 0.691304 2.17372 4.9261C1.73323 5.2775 1.5 5.8213 1.5 6.3848V8.0459C1.5 9.4609 2.92906 10.4284 4.24279 9.9029L5.25503 9.498C6.00695 9.1972 6.5 8.469 6.5 7.6591C6.5 6.9634 6.86003 6.302 7.51151 6.058C9.8085 5.1977 13.1915 5.1977 15.4885 6.058C16.14 6.302 16.5 6.9634 16.5 7.6591C16.5 8.469 16.993 9.1972 17.745 9.498L18.7572 9.9029C20.0709 10.4284 21.5 9.4609 21.5 8.0459V6.3848Z" stroke="white" stroke-width="2" stroke-linecap="round" stroke-linejoin="round"/>
</svg>