<svg xmlns="http://www.w3.org/2000/svg" width="23" height="20" viewBox="0 0 23 20" fill="none">
  <path d="M22.2875 17.5787L16.8632 13.0052C17.2959 12.1048 17.55 11.0878 17.55 9.9999V8.1999C17.55 7.8684 17.3038 7.5999 17 7.5999H16.45C16.1461 7.5999 15.9 7.8684 15.9 8.1999V9.9999C15.9 10.6719 15.7638 11.3049 15.5315 11.8824L14.6188 11.1129C14.7254 10.7604 14.8003 10.3922 14.8003 10.0003V3.9999C14.8003 2.01165 13.3229 0.399902 11.5003 0.399902C9.67775 0.399902 8.20031 2.01165 8.20031 3.9999V5.7009L2.063 0.526277C1.82306 0.323027 1.47725 0.369902 1.29094 0.631652L0.615813 1.57928C0.429501 1.84065 0.47247 2.21753 0.712407 2.42115L20.9373 19.4735C21.1772 19.6772 21.5227 19.6299 21.7093 19.3682L22.3845 18.4205C22.5704 18.1592 22.5275 17.7823 22.2875 17.5787ZM14.25 17.7999H12.325V16.5335C12.7258 16.4735 13.1104 16.3633 13.4824 16.2219L11.7598 14.7695C11.5292 14.7845 11.2989 14.8022 11.0603 14.777C9.14047 14.5727 7.66613 12.9534 7.2385 10.9577L5.44997 9.44903V9.7059C5.44997 13.0674 7.64894 16.064 10.675 16.5193V17.7999H8.74997C8.44609 17.7999 8.19997 18.0684 8.19997 18.3999V18.9999C8.19997 19.3314 8.44609 19.5999 8.74997 19.5999H14.25C14.5538 19.5999 14.8 19.3314 14.8 18.9999V18.3999C14.8 18.0684 14.5538 17.7999 14.25 17.7999Z" fill="white"/>
</svg>