<svg xmlns="http://www.w3.org/2000/svg" width="25" height="8" viewBox="0 0 25 8" fill="none">
  <path d="M15.875 4C15.875 5.86562 14.3656 7.375 12.5 7.375C10.6344 7.375 9.125 5.86562 9.125 4C9.125 2.13438 10.6344 0.625 12.5 0.625C14.3656 0.625 15.875 2.13438 15.875 4ZM20.75 0.625C18.8844 0.625 17.375 2.13438 17.375 4C17.375 5.86562 18.8844 7.375 20.75 7.375C22.6156 7.375 24.125 5.86562 24.125 4C24.125 2.13438 22.6156 0.625 20.75 0.625ZM4.25 0.625C2.38438 0.625 0.875 2.13438 0.875 4C0.875 5.86562 2.38438 7.375 4.25 7.375C6.11562 7.375 7.625 5.86562 7.625 4C7.625 2.13438 6.11562 0.625 4.25 0.625Z" fill="white"/>
</svg>