<svg xmlns="http://www.w3.org/2000/svg" width="21" height="20" viewBox="0 0 21 20" fill="none">
  <path d="M10.15 4H11.3C12.4201 4 12.9802 4 13.408 4.21799C13.7843 4.40973 14.0903 4.71569 14.282 5.09202C14.5 5.51984 14.5 6.0799 14.5 7.2V8L17.0768 6.45392C17.8699 5.97803 18.2665 5.74009 18.5928 5.77051C18.8773 5.79703 19.1369 5.944 19.306 6.17433C19.5 6.43848 19.5 6.90095 19.5 7.8259V12.1741C19.5 12.679 19.5 13.0462 19.4684 13.3184M1.5 1L4.50005 4.00005M4.50005 4.00005C3.51167 4.00082 2.99359 4.01337 2.59202 4.21799C2.21569 4.40973 1.90973 4.71569 1.71799 5.09202C1.5 5.51984 1.5 6.07989 1.5 7.2V12.8C1.5 13.9201 1.5 14.4802 1.71799 14.908C1.90973 15.2843 2.21569 15.5903 2.59202 15.782C3.01984 16 3.57989 16 4.7 16H11.3C12.4201 16 12.9802 16 13.408 15.782C13.7843 15.5903 14.0903 15.2843 14.282 14.908C14.4049 14.6668 14.4585 14.3837 14.4819 13.9819M4.50005 4.00005L14.4819 13.9819M19.5 19L14.4819 13.9819" stroke="white" stroke-width="2" stroke-linecap="round" stroke-linejoin="round"/>
</svg>