<svg width="22" height="22" viewBox="0 0 22 22" fill="none" xmlns="http://www.w3.org/2000/svg">
<path fill-rule="evenodd" clip-rule="evenodd" d="M14.3742 4.90234C12.8811 4.90234 11.666 6.1085 11.666 7.60229C11.666 9.09607 12.8811 10.3022 14.3742 10.3022C15.8672 10.3022 17.0824 9.09607 17.0824 7.60229C17.0824 6.1085 15.8672 4.90234 14.3742 4.90234ZM13.041 7.60229C13.041 6.8732 13.6352 6.27734 14.3742 6.27734C15.1131 6.27734 15.7074 6.8732 15.7074 7.60229C15.7074 8.33137 15.1131 8.92722 14.3742 8.92722C13.6352 8.92722 13.041 8.33137 13.041 7.60229Z" fill="white"/>
<path fill-rule="evenodd" clip-rule="evenodd" d="M8.7358 19.1384C9.04105 18.7128 9.13931 18.2809 9.13202 17.8963C9.49152 18.0021 9.84718 18.0154 10.1879 17.9508C10.8923 17.8172 11.4135 17.3719 11.69 17.0047L11.6948 16.9983L11.6995 16.9918C12.1809 16.3205 12.1799 15.633 12.062 15.14C12.0043 14.8983 11.9186 14.6997 11.8474 14.5608C11.8115 14.4907 11.7782 14.4338 11.7523 14.392C11.7454 14.381 11.7391 14.371 11.7332 14.362C11.6519 14.2102 11.5602 14.0908 11.483 14.0008L11.4912 13.9926L11.9167 13.5688C12.2665 13.7361 12.646 13.8415 12.9784 13.9102C13.5153 14.0214 14.0407 14.0587 14.374 14.0587C17.9501 14.0587 20.8541 11.1707 20.8541 7.60224C20.8541 4.03377 17.9501 1.14575 14.374 1.14575C10.7978 1.14575 7.8938 4.03377 7.8938 7.60224C7.8938 8.44288 8.08515 9.16281 8.27371 9.66984C8.32171 9.7989 8.36989 9.91514 8.4153 10.0172L1.76467 16.6406C1.52962 16.8747 1.25388 17.2818 1.17054 17.7917C1.08016 18.3446 1.2286 18.9592 1.76467 19.4932L2.57295 20.2981C2.5854 20.3106 2.59834 20.3225 2.61171 20.3339C2.84518 20.5332 3.23732 20.7636 3.70856 20.8333C4.21401 20.908 4.79898 20.7916 5.29446 20.2981L5.81378 19.7809C6.30228 20.0611 6.81863 20.1249 7.29611 20.0335C7.91537 19.9149 8.43044 19.5442 8.72632 19.1513L8.73114 19.1449L8.7358 19.1384ZM9.26877 7.60224C9.26877 4.79846 11.5518 2.52075 14.374 2.52075C17.1961 2.52075 19.4791 4.79846 19.4791 7.60224C19.4791 10.406 17.1961 12.6837 14.374 12.6837C14.1235 12.6837 13.6924 12.654 13.2571 12.5638C12.8016 12.4695 12.4439 12.3295 12.2534 12.1713C11.9807 11.945 11.5804 11.9632 11.3292 12.2133L10.5209 13.0183C10.336 13.2025 10.1583 13.4112 10.0644 13.6521C9.94572 13.9572 9.98358 14.2507 10.1194 14.4943C10.2 14.6388 10.3298 14.7768 10.3838 14.8343L10.4019 14.8538C10.4658 14.9243 10.5009 14.9704 10.5264 15.0213L10.5506 15.0696L10.5783 15.1081L10.5845 15.118C10.5928 15.1313 10.6069 15.1552 10.6237 15.1877C10.6578 15.2544 10.6983 15.349 10.7247 15.4597C10.7748 15.6691 10.7743 15.9184 10.5869 16.1838C10.458 16.3518 10.2139 16.5463 9.93161 16.5999C9.69547 16.6447 9.31066 16.6155 8.79699 16.104C8.52873 15.8368 8.09496 15.8368 7.82671 16.104L7.55729 16.3723C7.30351 16.625 7.28648 17.0299 7.51714 17.303C7.51843 17.3046 7.52197 17.309 7.52728 17.316C7.53831 17.3306 7.55642 17.3557 7.57788 17.3895C7.62191 17.4588 7.67366 17.5548 7.71041 17.6646C7.77968 17.8715 7.79057 18.0925 7.62334 18.3301C7.51338 18.4725 7.29026 18.6346 7.03747 18.683C6.82264 18.7241 6.54759 18.6936 6.23744 18.3848C5.96919 18.1176 5.53542 18.1176 5.26717 18.3848L4.32417 19.3239C4.17303 19.4744 4.03955 19.4922 3.90961 19.473C3.75583 19.4503 3.60554 19.3684 3.52069 19.3014L2.73495 18.5189C2.51663 18.3014 2.5079 18.1335 2.52754 18.0134C2.55421 17.8503 2.65567 17.6939 2.73495 17.6149L9.74222 10.6363C9.96846 10.411 10.0086 10.059 9.83884 9.78845L9.83682 9.78515C9.83435 9.78103 9.82958 9.77296 9.8228 9.76123C9.80942 9.73776 9.78824 9.69953 9.76193 9.64793C9.70913 9.54453 9.63617 9.38869 9.56247 9.1906C9.41424 8.79199 9.26877 8.23738 9.26877 7.60224ZM7.51714 17.303C7.51841 17.3045 7.51967 17.3059 7.52095 17.3075L7.51989 17.3062L7.51714 17.303Z" fill="white"/>
</svg>
