<svg width="22" height="22" viewBox="0 0 22 22" fill="none" xmlns="http://www.w3.org/2000/svg">
<path d="M8.70835 17.8749V16.4999H4.12502C3.62085 16.4999 3.16252 16.2983 2.83252 15.9591C2.49335 15.6291 2.29169 15.1708 2.29169 14.6666C2.29169 13.7224 3.02502 12.9341 3.95085 12.8424C4.00585 12.8333 4.06085 12.8333 4.12502 12.8333H17.875C17.9392 12.8333 17.9942 12.8333 18.0492 12.8424C18.4892 12.8791 18.8742 13.0716 19.1675 13.3741C19.5434 13.7408 19.745 14.2633 19.6992 14.8316C19.6167 15.7941 18.7459 16.4999 17.7742 16.4999H13.2917V17.8749C13.2917 19.1399 12.265 20.1666 11 20.1666C9.73502 20.1666 8.70835 19.1399 8.70835 17.8749Z" stroke="white" stroke-width="2" stroke-linecap="round" stroke-linejoin="round"/>
<path d="M18.4892 4.85825L18.0492 12.8424C17.9942 12.8333 17.9392 12.8333 17.875 12.8333H4.12503C4.06086 12.8333 4.00586 12.8333 3.95086 12.8424L3.51086 4.85825C3.34586 3.23575 4.62003 1.83325 6.24253 1.83325H15.7575C17.38 1.83325 18.6542 3.23575 18.4892 4.85825Z" stroke="white" stroke-width="2" stroke-linecap="round" stroke-linejoin="round"/>
<path d="M7.32416 1.83325V6.41659" stroke="white" stroke-width="2" stroke-linecap="round" stroke-linejoin="round"/>
<path d="M11 1.83325V3.66659" stroke="white" stroke-width="2" stroke-linecap="round" stroke-linejoin="round"/>
</svg>
