<svg viewBox="100 0 295 90" preserveAspectRatio="xMidYMid meet" class="css-8aabad" id="dchhdedc"><defs id="SvgjsDefs1016"><linearGradient id="SvgjsLinearGradient1023"><stop id="SvgjsStop1024" stop-color="#fe8dc6" offset="0"></stop><stop id="SvgjsStop1025" stop-color="#fed1c7" offset="1"></stop></linearGradient></defs><g id="SvgjsG1018" featurekey="nameFeature-0" transform="matrix(1.3314093557998912,0,0,1.3314093557998912,118.85871634105891,0.7842533173700712)" fill="#fff"><path d="M8.1143 11.428999999999998 l0 6.2857 l-7.2571 0 l0 -6.2857 l7.2571 0 z M9.2571 11.428999999999998 l15.886 0 l0 6.2857 l-8.4571 0 l0 22.286 l-7.4286 0 l0 -28.571 z M39.714571428571425 40 l-3.1429 0 l-4.2857 -4.2857 l0 -24.286 l7.4286 0 l0 28.571 z M40.857571428571426 11.428999999999998 l15.714 0 l0 6.2857 l-15.714 0 l0 -6.2857 z M54.28557142857143 22.571 l0 6.2857 l-13.429 0 l0 -6.2857 l13.429 0 z M40.857571428571426 40 l0 -6.2857 l15.714 0 l0 6.2857 l-15.714 0 z M70.97144285714286 11.428999999999998 l0 6.2857 l-7.2571 0 l0 -6.2857 l7.2571 0 z M72.11424285714286 11.428999999999998 l15.886 0 l0 6.2857 l-8.4571 0 l0 22.286 l-7.4286 0 l0 -28.571 z M102.6287142857143 40 l-7.4857 0 l0.057143 -28.571 l7.4286 0 l0 28.571 z M112.9147142857143 11.428999999999998 l7.4286 0 l0 28.571 l-7.4286 0 l0 -11.143 l-9.1429 0 l0 -6.2857 l9.1429 0 l0 -11.143 z M136.91457142857143 40 l-3.1429 0 l-4.2857 -4.2857 l0 -24.286 l7.4286 0 l0 28.571 z M138.05757142857144 11.428999999999998 l15.714 0 l0 6.2857 l-15.714 0 l0 -6.2857 z M151.48557142857143 22.571 l0 6.2857 l-13.429 0 l0 -6.2857 l13.429 0 z M138.05757142857144 40 l0 -6.2857 l15.714 0 l0 6.2857 l-15.714 0 z M170.34314285714288 40 l-7.4286 0 l0 -28.571 l7.4286 0 l0 28.571 z M188.62814285714288 15.713999999999999 l0 10 l-4.2857 4.2857 l4.2857 6.5714 l0 3.4286 l-6.8571 0 l-5.9429 -9.7143 l-4.3429 0 l0 -6.2857 l9.7143 0 l0 -6.2857 l-9.7143 0 l0 -6.2857 l12.857 0 z"></path></g><g id="SvgjsG1019" featurekey="sloganFeature-0" transform="matrix(0.8716267704170652,0,0,0.8716267704170652,121.37877471408558,59.7068553160874)" fill="#fff"><path d="M2.26 17.68 c-0.44 -0.82 0.68 -1.42 1.2 -0.6 c0.26 0.42 1.04 1.14 2.28 1.14 c0.52 0 1.82 -0.38 2 -1.86 c0.12 -0.9 -0.74 -1.78 -2.22 -2.52 c-2.08 -0.98 -3.66 -1.84 -3.66 -3.56 c0 -2.04 1.72 -3 3.56 -3 c1.66 0 2.58 1.02 2.9 1.54 c0.46 0.74 -0.54 1.46 -1.1 0.74 c-0.28 -0.36 -0.82 -0.96 -1.8 -0.96 c-1.1 0 -2.24 0.52 -2.24 1.68 c0 0.92 1.02 1.44 2.54 2.16 c1.78 0.88 3.64 1.74 3.36 4.08 c-0.22 1.84 -1.62 3.02 -3.34 3.02 c-1.3 0 -2.9 -0.7 -3.48 -1.86 z M19.172 7.359999999999999 l6.04 0 c0.42 0 0.62 0.34 0.62 0.68 s-0.2 0.66 -0.62 0.66 l-2.28 0 l0 10.06 c0 0.42 -0.34 0.64 -0.68 0.64 s-0.66 -0.22 -0.66 -0.64 l0 -10.06 l-2.42 0 c-0.42 0 -0.62 -0.32 -0.62 -0.66 s0.2 -0.68 0.62 -0.68 z M41.924 18.86 l-0.78 -2.54 l-3.72 0 l-0.74 2.5 c-0.26 0.86 -1.58 0.6 -1.3 -0.28 c1.04 -3.5 2.06 -7.06 3.08 -10.6 c0.12 -0.38 0.44 -0.58 0.76 -0.58 c0.3 0 0.62 0.2 0.74 0.58 l3.18 10.6 c0.22 0.76 -0.96 1.18 -1.22 0.32 z M39.264 10.06 l-1.44 4.92 l2.94 0 c-0.5 -1.68 -0.96 -3.12 -1.5 -4.92 z M59.276 8.3 l-2.48 5.14 l0 5.32 c0 0.44 -0.32 0.64 -0.64 0.64 c-0.34 0 -0.66 -0.22 -0.66 -0.64 l0 -5.32 l-2.54 -5.12 c-0.42 -0.88 0.8 -1.4 1.22 -0.56 l1.98 3.96 l1.9 -3.94 c0.44 -0.92 1.64 -0.34 1.22 0.52 z M86.9 7.32 c1.82 0 3.76 0.7 3.76 2.76 c0 0.48 -0.32 0.7 -0.66 0.7 s-0.7 -0.24 -0.7 -0.7 c0 -0.16 -0.1 -1.46 -2.4 -1.46 c-1.82 0 -2.62 0.72 -2.62 2.44 l0 4.82 c0 1.74 0.98 2.28 2.62 2.28 c1.66 0 2.58 -0.68 2.58 -2.3 c0 -0.46 0.34 -0.68 0.66 -0.68 c0.34 0 0.66 0.22 0.66 0.68 c0 2.7 -1.5 3.6 -3.9 3.6 c-2.6 0 -3.92 -0.96 -3.92 -3.58 l0 -4.82 c0 -2.84 1.42 -3.74 3.92 -3.74 z M101.33200000000001 15.86 l0 -4.96 c0 -2.4 1.24 -3.68 3.64 -3.68 l0.52 0 c2.38 0 3.64 1.28 3.64 3.68 l0 4.96 c0 2.2 -1.46 3.64 -3.64 3.64 l-0.52 0 c-2.22 0 -3.64 -1.46 -3.64 -3.64 z M104.97200000000001 18.16 l0.52 0 c1.44 0 2.3 -0.9 2.3 -2.3 l0 -4.96 c0 -1.56 -0.76 -2.36 -2.3 -2.36 l-0.52 0 c-1.52 0 -2.36 0.82 -2.36 2.36 l0 4.96 c0 1.46 0.92 2.3 2.36 2.3 z M126.70400000000001 8 l0 10.76 c0 0.42 -0.32 0.64 -0.64 0.64 c-0.24 0 -0.56 -0.18 -0.7 -0.44 c-1.5 -2.94 -2.62 -5.2 -4.12 -8.16 l0 7.96 c0 0.42 -0.32 0.64 -0.66 0.64 c-0.32 0 -0.66 -0.22 -0.66 -0.64 l0 -10.76 c0 -0.7 1 -0.74 1.22 -0.32 l4.22 8.34 l0 -8.02 c0 -0.42 0.32 -0.64 0.66 -0.64 s0.68 0.22 0.68 0.64 z M144.57600000000002 8 l0 10.76 c0 0.42 -0.32 0.64 -0.64 0.64 c-0.24 0 -0.56 -0.18 -0.7 -0.44 c-1.5 -2.94 -2.62 -5.2 -4.12 -8.16 l0 7.96 c0 0.42 -0.32 0.64 -0.66 0.64 c-0.32 0 -0.66 -0.22 -0.66 -0.64 l0 -10.76 c0 -0.7 1 -0.74 1.22 -0.32 l4.22 8.34 l0 -8.02 c0 -0.42 0.32 -0.64 0.66 -0.64 s0.68 0.22 0.68 0.64 z M155.62800000000004 18.7 l0 -10.64 c0 -0.46 0.36 -0.7 0.7 -0.7 l4.6 0 c0.44 0 0.66 0.32 0.66 0.66 s-0.22 0.68 -0.66 0.68 l-3.96 0 l0 3.88 l3.14 0 c0.46 0 0.68 0.32 0.68 0.66 s-0.24 0.7 -0.68 0.7 l-3.14 0 l0 4.14 l3.96 0 c0.42 0 0.64 0.34 0.64 0.66 c0 0.34 -0.22 0.66 -0.64 0.66 l-4.6 0 c-0.34 0 -0.7 -0.12 -0.7 -0.7 z M175.82000000000005 7.32 c1.82 0 3.76 0.7 3.76 2.76 c0 0.48 -0.32 0.7 -0.66 0.7 s-0.7 -0.24 -0.7 -0.7 c0 -0.16 -0.1 -1.46 -2.4 -1.46 c-1.82 0 -2.62 0.72 -2.62 2.44 l0 4.82 c0 1.74 0.98 2.28 2.62 2.28 c1.66 0 2.58 -0.68 2.58 -2.3 c0 -0.46 0.34 -0.68 0.66 -0.68 c0.34 0 0.66 0.22 0.66 0.68 c0 2.7 -1.5 3.6 -3.9 3.6 c-2.6 0 -3.92 -0.96 -3.92 -3.58 l0 -4.82 c0 -2.84 1.42 -3.74 3.92 -3.74 z M190.09200000000004 7.359999999999999 l6.04 0 c0.42 0 0.62 0.34 0.62 0.68 s-0.2 0.66 -0.62 0.66 l-2.28 0 l0 10.06 c0 0.42 -0.34 0.64 -0.68 0.64 s-0.66 -0.22 -0.66 -0.64 l0 -10.06 l-2.42 0 c-0.42 0 -0.62 -0.32 -0.62 -0.66 s0.2 -0.68 0.62 -0.68 z M206.94400000000005 18.7 l0 -10.64 c0 -0.46 0.36 -0.7 0.7 -0.7 l4.6 0 c0.44 0 0.66 0.32 0.66 0.66 s-0.22 0.68 -0.66 0.68 l-3.96 0 l0 3.88 l3.14 0 c0.46 0 0.68 0.32 0.68 0.66 s-0.24 0.7 -0.68 0.7 l-3.14 0 l0 4.14 l3.96 0 c0.42 0 0.64 0.34 0.64 0.66 c0 0.34 -0.22 0.66 -0.64 0.66 l-4.6 0 c-0.34 0 -0.7 -0.12 -0.7 -0.7 z M223.51600000000005 18.78 l0 -10.76 c0 -0.54 0.38 -0.66 0.66 -0.66 l3.2 0 c2.64 0 3.94 1.26 3.94 3.74 l0 5.12 c0 1.56 -1.22 3.2 -3.88 3.2 l-3.26 0 c-0.28 0 -0.66 -0.16 -0.66 -0.64 z M229.99600000000004 16.22 l0 -5.12 c0 -1.64 -0.88 -2.4 -2.62 -2.4 l-2.54 0 l0 9.42 l2.6 0 c1.22 0 2.56 -0.66 2.56 -1.9 z"></path></g></svg>